<svg width="48" height="49" viewBox="0 0 48 49" fill="none" xmlns="http://www.w3.org/2000/svg">
<rect y="0.5" width="48" height="48" rx="10" fill="#F3F3F3"/>
<g clip-path="url(#clip0_132_179)">
<path d="M28 13H20C18.6744 13.0016 17.4036 13.5289 16.4662 14.4662C15.5289 15.4036 15.0016 16.6744 15 18V36C15.0001 36.1819 15.0499 36.3603 15.1439 36.516C15.2379 36.6717 15.3726 36.7989 15.5334 36.8837C15.6943 36.9686 15.8753 37.008 16.0569 36.9976C16.2385 36.9873 16.4138 36.9276 16.564 36.825L18.67 35.386L20.776 36.825C20.9424 36.9389 21.1393 36.9999 21.341 36.9999C21.5427 36.9999 21.7396 36.9389 21.906 36.825L24.006 35.386L26.106 36.825C26.2725 36.9392 26.4696 37.0003 26.6715 37.0003C26.8734 37.0003 27.0705 36.9392 27.237 36.825L29.337 35.387L31.437 36.824C31.5871 36.9263 31.7623 36.9857 31.9436 36.996C32.125 37.0062 32.3057 36.9669 32.4664 36.8821C32.627 36.7974 32.7616 36.6706 32.8556 36.5151C32.9496 36.3597 32.9996 36.1816 33 36V18C32.9984 16.6744 32.4711 15.4036 31.5338 14.4662C30.5964 13.5289 29.3256 13.0016 28 13V13ZM31 34.1L29.9 33.348C29.7334 33.2336 29.5361 33.1724 29.334 33.1724C29.1319 33.1724 28.9346 33.2336 28.768 33.348L26.668 34.787L24.568 33.348C24.4015 33.2338 24.2044 33.1727 24.0025 33.1727C23.8006 33.1727 23.6035 33.2338 23.437 33.348L21.337 34.787L19.237 33.348C19.0707 33.2343 18.874 33.1734 18.6725 33.1734C18.471 33.1734 18.2743 33.2343 18.108 33.348L17 34.1V18C17 17.2044 17.3161 16.4413 17.8787 15.8787C18.4413 15.3161 19.2044 15 20 15H28C28.7956 15 29.5587 15.3161 30.1213 15.8787C30.6839 16.4413 31 17.2044 31 18V34.1Z" fill="#858585"/>
<path d="M27.9998 21.0006H19.9998C19.4476 21.0006 18.9998 21.4483 18.9998 22.0006C18.9998 22.5529 19.4476 23.0006 19.9998 23.0006H27.9998C28.5521 23.0006 28.9998 22.5529 28.9998 22.0006C28.9998 21.4483 28.5521 21.0006 27.9998 21.0006Z" fill="#858585"/>
<path d="M25.9998 25H19.9998C19.4476 25 18.9998 25.4477 18.9998 26C18.9998 26.5523 19.4476 27 19.9998 27H25.9998C26.5521 27 26.9998 26.5523 26.9998 26C26.9998 25.4477 26.5521 25 25.9998 25Z" fill="#858585"/>
</g>
<defs>
<clipPath id="clip0_132_179">
<rect width="24" height="24" fill="white" transform="translate(12 13)"/>
</clipPath>
</defs>
</svg>
