<svg width="21" height="21" viewBox="0 0 21 21" fill="none" xmlns="http://www.w3.org/2000/svg">
<path d="M20.0869 9.58749H0.913029C0.408772 9.58749 0 9.99627 0 10.5005C0 11.0048 0.408772 11.4136 0.913029 11.4136H20.0869C20.5912 11.4136 21 11.0048 21 10.5005C21 9.99627 20.5912 9.58749 20.0869 9.58749Z" fill="#374957"/>
<path d="M0.913029 5.02192H20.0869C20.5912 5.02192 21 4.61315 21 4.10889C21 3.60463 20.5912 3.19586 20.0869 3.19586H0.913029C0.408772 3.19586 0 3.60463 0 4.10889C0 4.61315 0.408772 5.02192 0.913029 5.02192Z" fill="#374957"/>
<path d="M20.0869 15.9784H0.913029C0.408772 15.9784 0 16.3872 0 16.8914C0 17.3957 0.408772 17.8045 0.913029 17.8045H20.0869C20.5912 17.8045 21 17.3957 21 16.8914C21 16.3872 20.5912 15.9784 20.0869 15.9784Z" fill="#374957"/>
</svg>
