<svg width="375" height="812" viewBox="0 0 375 812" fill="none" xmlns="http://www.w3.org/2000/svg">
<rect x="-3.05176e-05" width="377.098" height="812" fill="#E37B1B"/>
<path d="M147.114 9.63392C144.178 -30.7367 162.712 -89.4576 172.345 -113.772H444.388C451.881 -36.8535 462.372 117.258 444.388 118.359C421.909 119.736 381.997 182.127 270.52 149.096C159.042 116.066 150.784 60.0972 147.114 9.63392Z" fill="black"/>
<path d="M-43.551 741.657C19.56 644.008 79.0669 641.427 125.039 662.561C238.554 714.744 224.276 841.135 159.656 982.565C83.7443 968.075 -67.0765 934.705 -63.0644 917.14C-58.0492 895.184 -106.662 839.306 -43.551 741.657Z" fill="black"/>
<path d="M109.643 198.183C76.6124 136.526 15.4448 137.015 -11.0102 144.967C-23.3966 262.715 -40.7376 497.109 -11.0102 492.705C26.1491 487.2 23.3966 451.876 35.3243 414.716C44.8664 384.989 88.8459 338.41 109.643 318.836C123.406 304.309 142.673 259.84 109.643 198.183Z" fill="black"/>
<path d="M260.817 803.991C276.764 872.096 335.974 887.455 363.585 886.621C406.025 776.092 483.441 554.172 453.587 550.732C416.269 546.432 409.785 581.265 388.646 614.071C371.735 640.316 317.198 673.925 292.044 687.449C274.99 697.92 244.87 735.886 260.817 803.991Z" fill="black"/>
<circle cx="112.854" cy="342.233" r="43.4582" stroke="black" stroke-width="3"/>
<circle cx="48.1695" cy="625.286" r="77.865" stroke="white" stroke-width="3"/>
<circle cx="-40" cy="56.7729" r="55.0508" fill="white"/>
<circle cx="250.94" cy="285.806" r="20.7367" stroke="black" stroke-width="20"/>
<circle cx="211.028" cy="657.858" r="16.1028" stroke="black" stroke-width="10"/>
<line x1="154.558" y1="211.82" x2="199.517" y2="173.284" stroke="white" stroke-width="10"/>
<line x1="216.346" y1="409.641" x2="186.069" y2="372.94" stroke="white" stroke-width="10"/>
<line x1="51.7108" y1="775.592" x2="78.5813" y2="736.328" stroke="white" stroke-width="10"/>
<line x1="385.744" y1="279.278" x2="339.496" y2="268.106" stroke="white" stroke-width="10"/>
<path d="M111.019 -23.8554C110.255 -1.22336 130 37.5 87.1639 83.9525C-26.829 207.569 138.052 284.288 236.26 212.863C288.099 181.668 324.8 188.366 378.016 228.002" stroke="white" stroke-width="2"/>
</svg>
