<svg width="48" height="49" viewBox="0 0 48 49" fill="none" xmlns="http://www.w3.org/2000/svg">
<rect y="0.5" width="48" height="48" rx="10" fill="#F3F3F3"/>
<g clip-path="url(#clip0_132_103)">
<path d="M18.9999 35.5006C20.1045 35.5006 20.9999 34.6052 20.9999 33.5006C20.9999 32.3961 20.1045 31.5006 18.9999 31.5006C17.8953 31.5006 16.9999 32.3961 16.9999 33.5006C16.9999 34.6052 17.8953 35.5006 18.9999 35.5006Z" fill="#858585"/>
<path d="M29 35.5006C30.1046 35.5006 31 34.6052 31 33.5006C31 32.3961 30.1046 31.5006 29 31.5006C27.8954 31.5006 27 32.3961 27 33.5006C27 34.6052 27.8954 35.5006 29 35.5006Z" fill="#858585"/>
<path d="M35.0001 14.5H33.0001V12.5C33.0001 12.2348 32.8947 11.9804 32.7072 11.7929C32.5197 11.6053 32.2653 11.5 32.0001 11.5C31.7349 11.5 31.4805 11.6053 31.293 11.7929C31.1054 11.9804 31.0001 12.2348 31.0001 12.5V14.5H29.0001C28.7349 14.5 28.4805 14.6053 28.293 14.7929C28.1054 14.9804 28.0001 15.2348 28.0001 15.5C28.0001 15.7652 28.1054 16.0196 28.293 16.2071C28.4805 16.3946 28.7349 16.5 29.0001 16.5H31.0001V18.5C31.0001 18.7652 31.1054 19.0196 31.293 19.2071C31.4805 19.3946 31.7349 19.5 32.0001 19.5C32.2653 19.5 32.5197 19.3946 32.7072 19.2071C32.8947 19.0196 33.0001 18.7652 33.0001 18.5V16.5H35.0001C35.2653 16.5 35.5196 16.3946 35.7072 16.2071C35.8947 16.0196 36.0001 15.7652 36.0001 15.5C36.0001 15.2348 35.8947 14.9804 35.7072 14.7929C35.5196 14.6053 35.2653 14.5 35.0001 14.5Z" fill="#858585"/>
<path d="M33.771 21.226C33.6417 21.2018 33.5089 21.2035 33.3803 21.231C33.2516 21.2585 33.1297 21.3113 33.0216 21.3863C32.9136 21.4613 32.8214 21.5569 32.7506 21.6678C32.6798 21.7786 32.6316 21.9024 32.609 22.032C32.4843 22.7242 32.1203 23.3505 31.5808 23.8016C31.0412 24.2527 30.3603 24.4999 29.657 24.5H17.418L16.478 16.5H25C25.2652 16.5 25.5196 16.3946 25.7071 16.2071C25.8946 16.0196 26 15.7652 26 15.5C26 15.2348 25.8946 14.9804 25.7071 14.7929C25.5196 14.6054 25.2652 14.5 25 14.5H16.242L16.2 14.148C16.1138 13.4186 15.7631 12.7462 15.2142 12.2581C14.6653 11.7701 13.9565 11.5003 13.222 11.5H13C12.7348 11.5 12.4804 11.6054 12.2929 11.7929C12.1054 11.9804 12 12.2348 12 12.5C12 12.7652 12.1054 13.0196 12.2929 13.2071C12.4804 13.3946 12.7348 13.5 13 13.5H13.222C13.4669 13.5 13.7033 13.59 13.8864 13.7527C14.0694 13.9155 14.1863 14.1397 14.215 14.383L15.591 26.083C15.7339 27.2998 16.3185 28.4218 17.2339 29.236C18.1493 30.0502 19.3319 30.5 20.557 30.5H31C31.2652 30.5 31.5196 30.3946 31.7071 30.2071C31.8946 30.0196 32 29.7652 32 29.5C32 29.2348 31.8946 28.9804 31.7071 28.7929C31.5196 28.6054 31.2652 28.5 31 28.5H20.557C19.9365 28.5001 19.3313 28.3078 18.8246 27.9497C18.318 27.5915 17.9348 27.085 17.728 26.5H29.657C30.8291 26.5001 31.9641 26.0884 32.8635 25.3368C33.763 24.5852 34.3698 23.5415 34.578 22.388C34.6014 22.2587 34.599 22.1261 34.5711 21.9977C34.5432 21.8693 34.4902 21.7477 34.4153 21.6398C34.3403 21.5319 34.2449 21.4398 34.1343 21.3688C34.0238 21.2978 33.9003 21.2493 33.771 21.226Z" fill="#858585"/>
</g>
<defs>
<clipPath id="clip0_132_103">
<rect width="24" height="24" fill="white" transform="translate(12 11.5)"/>
</clipPath>
</defs>
</svg>
