<svg width="48" height="49" viewBox="0 0 48 49" fill="none" xmlns="http://www.w3.org/2000/svg">
<rect y="0.5" width="48" height="48" rx="10" fill="#F3F3F3"/>
<g clip-path="url(#clip0_134_20)">
<path d="M34.9999 23.5C35.2652 23.5 35.5195 23.3946 35.707 23.2071C35.8946 23.0196 35.9999 22.7652 35.9999 22.5C35.9999 22.2348 35.8946 21.9804 35.707 21.7929C35.5195 21.6053 35.2652 21.5 34.9999 21.5H33.5999L32.8299 19.019C32.5488 18.1046 32.0094 17.2909 31.2767 16.6758C30.544 16.0607 29.6492 15.6705 28.6999 15.552C28.3206 14.6491 27.6835 13.8781 26.8684 13.3353C26.0533 12.7925 25.0963 12.502 24.1169 12.5H23.8829C22.9036 12.502 21.9466 12.7925 21.1315 13.3353C20.3164 13.8781 19.6793 14.6491 19.2999 15.552C18.3511 15.6708 17.4568 16.061 16.7245 16.6759C15.9922 17.2908 15.4531 18.1041 15.1719 19.018L14.3999 21.5H12.9999C12.7347 21.5 12.4804 21.6053 12.2928 21.7929C12.1053 21.9804 11.9999 22.2348 11.9999 22.5C11.9999 22.7652 12.1053 23.0196 12.2928 23.2071C12.4804 23.3946 12.7347 23.5 12.9999 23.5H13.7809L13.0659 25.8C12.6574 26.2368 12.3532 26.7605 12.1761 27.3318C11.9991 27.9031 11.9538 28.5071 12.0437 29.0984C12.1336 29.6897 12.3563 30.2529 12.6951 30.7458C13.0339 31.2386 13.48 31.6483 13.9999 31.944V33.5C13.9999 34.2956 14.316 35.0587 14.8786 35.6213C15.4412 36.1839 16.2043 36.5 16.9999 36.5C17.7956 36.5 18.5586 36.1839 19.1213 35.6213C19.6839 35.0587 19.9999 34.2956 19.9999 33.5V32.5H27.9999V33.5C27.9999 34.2956 28.316 35.0587 28.8786 35.6213C29.4412 36.1839 30.2043 36.5 30.9999 36.5C31.7956 36.5 32.5586 36.1839 33.1213 35.6213C33.6839 35.0587 33.9999 34.2956 33.9999 33.5V31.944C34.5195 31.6483 34.9653 31.2387 35.3039 30.746C35.6425 30.2533 35.8651 29.6903 35.9549 29.0993C36.0448 28.5082 35.9997 27.9045 35.8228 27.3335C35.646 26.7624 35.3421 26.2388 34.9339 25.802L34.2189 23.5H34.9999ZM23.8829 14.5H24.1169C24.5374 14.5008 24.953 14.5903 25.3366 14.7626C25.7201 14.935 26.063 15.1862 26.3429 15.5H21.6569C21.9367 15.1861 22.2796 14.9347 22.6632 14.7624C23.0468 14.5901 23.4624 14.5007 23.8829 14.5ZM17.0829 19.61C17.2709 18.9976 17.6507 18.4619 18.1664 18.082C18.6821 17.702 19.3064 17.498 19.9469 17.5H28.0529C28.6938 17.4978 29.3183 17.7019 29.8343 18.0821C30.3502 18.4622 30.7301 18.9983 30.9179 19.611L32.4499 24.545C32.3009 24.5214 32.1507 24.5064 31.9999 24.5H15.9999C15.8492 24.5064 15.699 24.5214 15.5499 24.545L17.0829 19.61ZM17.9999 33.5C17.9999 33.7652 17.8946 34.0196 17.707 34.2071C17.5195 34.3946 17.2652 34.5 16.9999 34.5C16.7347 34.5 16.4804 34.3946 16.2928 34.2071C16.1053 34.0196 15.9999 33.7652 15.9999 33.5V32.5H17.9999V33.5ZM31.9999 33.5C31.9999 33.7652 31.8946 34.0196 31.707 34.2071C31.5195 34.3946 31.2652 34.5 30.9999 34.5C30.7347 34.5 30.4804 34.3946 30.2928 34.2071C30.1053 34.0196 29.9999 33.7652 29.9999 33.5V32.5H31.9999V33.5ZM31.9999 30.5H15.9999C15.4695 30.5 14.9608 30.2893 14.5857 29.9142C14.2106 29.5391 13.9999 29.0304 13.9999 28.5C13.9999 27.9696 14.2106 27.4609 14.5857 27.0858C14.9608 26.7107 15.4695 26.5 15.9999 26.5V27.5C15.9999 27.7652 16.1053 28.0196 16.2928 28.2071C16.4804 28.3946 16.7347 28.5 16.9999 28.5C17.2652 28.5 17.5195 28.3946 17.707 28.2071C17.8946 28.0196 17.9999 27.7652 17.9999 27.5V26.5H29.9999V27.5C29.9999 27.7652 30.1053 28.0196 30.2928 28.2071C30.4804 28.3946 30.7347 28.5 30.9999 28.5C31.2652 28.5 31.5195 28.3946 31.707 28.2071C31.8946 28.0196 31.9999 27.7652 31.9999 27.5V26.5C32.5304 26.5 33.0391 26.7107 33.4142 27.0858C33.7892 27.4609 33.9999 27.9696 33.9999 28.5C33.9999 29.0304 33.7892 29.5391 33.4142 29.9142C33.0391 30.2893 32.5304 30.5 31.9999 30.5Z" fill="#858585"/>
</g>
<defs>
<clipPath id="clip0_134_20">
<rect width="24" height="24" fill="white" transform="translate(12 12.5)"/>
</clipPath>
</defs>
</svg>
