<svg width="21" height="21" viewBox="0 0 21 21" fill="none" xmlns="http://www.w3.org/2000/svg">
<g clip-path="url(#clip0_132_157)">
<path d="M10.5 10.4999C11.5384 10.4999 12.5534 10.192 13.4167 9.61516C14.2801 9.03828 14.953 8.21834 15.3504 7.25903C15.7477 6.29972 15.8517 5.24412 15.6491 4.22572C15.4466 3.20732 14.9465 2.27186 14.2123 1.53763C13.4781 0.803405 12.5426 0.303391 11.5242 0.100819C10.5058 -0.101754 9.45022 0.00221372 8.49091 0.399574C7.5316 0.796934 6.71166 1.46984 6.13478 2.3332C5.55791 3.19656 5.25 4.21159 5.25 5.24994C5.25139 6.6419 5.80496 7.97645 6.78922 8.96072C7.77349 9.94498 9.10804 10.4986 10.5 10.4999ZM10.5 1.74994C11.1922 1.74994 11.8689 1.95521 12.4445 2.3398C13.0201 2.72438 13.4687 3.27101 13.7336 3.91055C13.9985 4.55009 14.0678 5.25382 13.9327 5.93276C13.7977 6.61169 13.4644 7.23533 12.9749 7.72482C12.4854 8.2143 11.8618 8.54764 11.1828 8.68269C10.5039 8.81774 9.80015 8.74843 9.16061 8.48352C8.52107 8.21861 7.97444 7.77001 7.58986 7.19444C7.20527 6.61887 7 5.94218 7 5.24994C7 4.32168 7.36875 3.43144 8.02513 2.77507C8.6815 2.11869 9.57174 1.74994 10.5 1.74994Z" fill="#374957"/>
<path d="M10.5 12.2505C8.41213 12.2529 6.41044 13.0833 4.93409 14.5596C3.45774 16.036 2.62732 18.0377 2.625 20.1255C2.625 20.3576 2.71719 20.5802 2.88128 20.7443C3.04538 20.9084 3.26794 21.0005 3.5 21.0005C3.73206 21.0005 3.95462 20.9084 4.11872 20.7443C4.28281 20.5802 4.375 20.3576 4.375 20.1255C4.375 18.5011 5.02031 16.9432 6.16897 15.7945C7.31763 14.6459 8.87555 14.0005 10.5 14.0005C12.1245 14.0005 13.6824 14.6459 14.831 15.7945C15.9797 16.9432 16.625 18.5011 16.625 20.1255C16.625 20.3576 16.7172 20.5802 16.8813 20.7443C17.0454 20.9084 17.2679 21.0005 17.5 21.0005C17.7321 21.0005 17.9546 20.9084 18.1187 20.7443C18.2828 20.5802 18.375 20.3576 18.375 20.1255C18.3727 18.0377 17.5423 16.036 16.0659 14.5596C14.5896 13.0833 12.5879 12.2529 10.5 12.2505Z" fill="#374957"/>
</g>
<defs>
<clipPath id="clip0_132_157">
<rect width="21" height="21" fill="white"/>
</clipPath>
</defs>
</svg>
